<svg width="150" height="150" viewBox="0 0 150 150" fill="none" xmlns="http://www.w3.org/2000/svg">
<path d="M10 0H140C145.5 0 150 4.5 150 10V140C150 145.5 145.5 150 140 150H10C4.5 150 0 145.5 0 140V10C0 4.5 4.5 0 10 0Z" fill="url(#paint0_linear_1719_13029)"/>
<path d="M31.7002 97.1C36.8002 102.2 43.6002 104.4 50.1002 107.2C56.7002 110.1 61.6002 114.5 66.7002 119.5C77.0002 129.6 89.0002 134 103.5 132.6C111 131.9 118.5 129.9 125.3 126.7" stroke="#FF4C00" stroke-miterlimit="10" stroke-linecap="round"/>
<path d="M129.1 124.7C129.1 124.7 137 120.8 140.9 116.3" stroke="#FF4C00" stroke-miterlimit="10" stroke-linecap="round"/>
<path d="M79.3999 24.2H130.2" stroke="black" stroke-width="1.25" stroke-miterlimit="10"/>
<path d="M120.5 116.4L79.5 116C76.6 116 74.4 113.6 74.6 110.7L79.5 24.2999C79.7 21.4999 82.1 19.2 84.9 19.2H125.3C128.2 19.2 130.4 21.4999 130.2 24.2999L126.1 111.2C125.9 114.1 123.4 116.4 120.5 116.4Z" stroke="black" stroke-width="1.25" stroke-miterlimit="10"/>
<path d="M86.3998 21.5C86.3998 21.9 85.9998 22.2999 85.5998 22.2999C85.1998 22.2999 84.7998 21.9 84.7998 21.5C84.7998 21.1 85.1998 20.7 85.5998 20.7C86.0998 20.7 86.3998 21.1 86.3998 21.5Z" fill="black"/>
<path d="M89.8998 21.5C89.8998 21.9 89.4998 22.2999 89.0998 22.2999C88.6998 22.2999 88.2998 21.9 88.2998 21.5C88.2998 21.1 88.6998 20.7 89.0998 20.7C89.4998 20.7 89.8998 21.1 89.8998 21.5Z" fill="black"/>
<path d="M93.3002 21.5C93.3002 21.9 92.9002 22.2999 92.5002 22.2999C92.1002 22.2999 91.7002 21.9 91.7002 21.5C91.7002 21.1 92.1002 20.7 92.5002 20.7C92.9002 20.7 93.3002 21.1 93.3002 21.5Z" fill="black"/>
<path d="M118.3 87.9L64.8 99.0999C63.2 99.3999 61.6 98.4 61.2 96.8L53.7 61.3C53.4 59.7 54.4 58.1 56 57.7L109.4 46.5C111 46.2 112.6 47.2 113 48.8L120.5 84.3C120.9 86 119.9 87.5 118.3 87.9Z" fill="black"/>
<path d="M70.3528 71.5878C74.6007 71.3925 77.8859 67.7906 77.6906 63.5426C77.4953 59.2947 73.8933 56.0095 69.6454 56.2048C65.3975 56.4001 62.1122 60.0021 62.3075 64.25C62.5029 68.4979 66.1048 71.7832 70.3528 71.5878Z" fill="white"/>
<path d="M71.6 71.8C67.2 72.7 62.9 69.9 62 65.5C61.1 61.1 63.9 56.8 68.3 55.9C72.7 55 77 57.8 77.9 62.2C78.8 66.6 76 70.9 71.6 71.8ZM68.5 56.7C64.6 57.5 62 61.4 62.8 65.4C63.6 69.3 67.5 71.9 71.5 71.1C75.4 70.3 78 66.4 77.2 62.4C76.3 58.4 72.4 55.9 68.5 56.7Z" fill="black"/>
<path d="M69.9999 70.3C73.5345 70.3 76.3999 67.4346 76.3999 63.9C76.3999 60.3654 73.5345 57.5 69.9999 57.5C66.4652 57.5 63.5999 60.3654 63.5999 63.9C63.5999 67.4346 66.4652 70.3 69.9999 70.3Z" fill="#FF4C00"/>
<path d="M70.9998 63.8L68.7998 64.3001C68.5998 64.3001 68.3998 64.2 68.2998 64C68.2998 63.8 68.3998 63.6 68.5998 63.5L70.7998 63C71.4998 62.9 71.8998 62.2 71.6998 61.6C71.5998 60.9 70.8998 60.5 70.2998 60.7L66.0998 61.6C65.8998 61.6 65.6998 61.5 65.5998 61.3C65.4998 61.1 65.6998 60.9 65.8998 60.8L70.0998 59.9001C71.1998 59.7001 72.1998 60.4001 72.4998 61.4001C72.7998 62.5001 72.0998 63.5 70.9998 63.8Z" fill="black"/>
<path d="M72.2 67.1L67.5 68.1C67.3 68.1 67.1 68 67 67.8C67 67.6 67.1 67.4 67.3 67.3L72 66.3C72.7 66.1 73.2 65.4 73.1 64.7C73 64 72.2 63.5 71.5 63.6L68.4 64.3C68.2 64.3 68 64.2 67.9 64C67.9 63.8 68 63.6 68.2 63.5L71.3 62.8C72.5 62.6 73.6 63.3 73.8 64.5C74.1 65.7 73.4 66.9 72.2 67.1Z" fill="black"/>
<path d="M70.0998 60.4C69.8998 60.4 69.6998 60.3 69.5998 60.1L69.2998 58.8C69.2998 58.6 69.3998 58.4 69.5998 58.3C69.7998 58.2 69.9998 58.4 70.0998 58.6L70.3998 59.9C70.3998 60.2 70.2998 60.4 70.0998 60.4Z" fill="black"/>
<path d="M68.1999 60.8001C67.9999 60.8001 67.7999 60.7001 67.6999 60.5001L67.3999 59.2001C67.3999 59.0001 67.4999 58.8001 67.6999 58.7001C67.8999 58.6001 68.0999 58.8001 68.1999 59.0001L68.4999 60.3001C68.4999 60.6001 68.3999 60.8001 68.1999 60.8001Z" fill="black"/>
<path d="M71.8 68.7001C71.6 68.7001 71.4 68.6001 71.3 68.4001L71 67.1001C71 66.9001 71.1 66.7001 71.3 66.6001C71.5 66.5001 71.7 66.7001 71.8 66.9001L72.1 68.2001C72.2 68.5001 72 68.7001 71.8 68.7001Z" fill="black"/>
<path d="M69.8996 69.1C69.6996 69.1 69.4996 69 69.3996 68.8L69.0996 67.5C69.0996 67.3 69.1996 67.1 69.3996 67C69.5996 66.9 69.7996 67.1 69.8996 67.3L70.1996 68.6C70.2996 68.9 70.0996 69.1 69.8996 69.1Z" fill="black"/>
<path d="M68.8 67.8001C68.6 67.8001 68.4 67.7001 68.3 67.5001L67 61.1001C67 60.9001 67.1 60.7001 67.3 60.6001C67.5 60.6001 67.7 60.7001 67.8 60.9001L69.1 67.3001C69.2 67.6001 69.1 67.8001 68.8 67.8001Z" fill="black"/>
<path d="M84.4487 63.6876C88.6966 63.4923 91.9819 59.8903 91.7865 55.6424C91.5912 51.3945 87.9892 48.1092 83.7413 48.3045C79.4934 48.4999 76.2082 52.1018 76.4035 56.3497C76.5988 60.5976 80.2008 63.8829 84.4487 63.6876Z" fill="white"/>
<path d="M85.6998 63.9C81.2998 64.8 76.9998 62 76.0998 57.6C75.1998 53.2 77.9998 48.9 82.3998 48C86.7998 47.1 91.0998 49.9 91.9998 54.3C92.8998 58.7 90.0998 63 85.6998 63.9ZM82.5998 48.9C78.6998 49.7 76.0998 53.6 76.8998 57.6C77.6998 61.5 81.5998 64.1 85.5998 63.3C89.4998 62.5 92.0998 58.6 91.2998 54.6C90.3998 50.6 86.4998 48 82.5998 48.9Z" fill="black"/>
<path d="M84.0997 62.4C87.6343 62.4 90.4997 59.5346 90.4997 56C90.4997 52.4654 87.6343 49.6 84.0997 49.6C80.5651 49.6 77.6997 52.4654 77.6997 56C77.6997 59.5346 80.5651 62.4 84.0997 62.4Z" fill="#FF4C00"/>
<path d="M85.0999 55.9L82.8999 56.4C82.6999 56.4 82.4999 56.3 82.3999 56.1C82.2999 55.9 82.4999 55.7 82.6999 55.6L84.8999 55.1C85.5999 55 85.9999 54.3 85.7999 53.7C85.6999 53 84.9999 52.6 84.3999 52.8L80.1999 53.7C79.9999 53.7 79.7999 53.6 79.6999 53.4C79.5999 53.2 79.7999 53 79.9999 52.9L84.1999 52C85.2999 51.8 86.2999 52.5 86.5999 53.5C86.8999 54.7 86.1999 55.7 85.0999 55.9Z" fill="black"/>
<path d="M86.3001 59.3L81.6001 60.3C81.4001 60.3 81.2001 60.2 81.1001 60C81.1001 59.8 81.2001 59.6 81.4001 59.5L86.1001 58.5C86.8001 58.3 87.3001 57.6 87.2001 56.9C87.1001 56.2 86.3001 55.7 85.6001 55.8L82.5001 56.5C82.3001 56.5 82.1001 56.4 82.0001 56.2C81.9001 56 82.1001 55.8 82.3001 55.7L85.4001 55C86.6001 54.8 87.7001 55.5 87.9001 56.7C88.2001 57.9 87.4001 59 86.3001 59.3Z" fill="black"/>
<path d="M84.1999 52.6C83.9999 52.6 83.7999 52.5 83.6999 52.3L83.3999 51C83.3999 50.8 83.4999 50.6 83.6999 50.5C83.8999 50.4 84.0999 50.6 84.1999 50.8L84.4999 52.1C84.4999 52.3 84.3999 52.6 84.1999 52.6Z" fill="black"/>
<path d="M82.3 53C82.1 53 81.9 52.9 81.8 52.7L81.5 51.4C81.5 51.2 81.6 51 81.8 50.9C82 50.9 82.2 51 82.3 51.2L82.6 52.5C82.6 52.7 82.5 53 82.3 53Z" fill="black"/>
<path d="M85.9001 60.9C85.7001 60.9 85.5001 60.8 85.4001 60.6L85.1001 59.3C85.1001 59.1 85.2001 58.9 85.4001 58.8C85.6001 58.7 85.8001 58.9 85.9001 59.1L86.2001 60.4C86.2001 60.6 86.1001 60.8 85.9001 60.9Z" fill="black"/>
<path d="M83.9997 61.2999C83.7997 61.2999 83.5997 61.2 83.4997 61L83.1997 59.7C83.1997 59.5 83.2997 59.3 83.4997 59.2C83.6997 59.2 83.8997 59.3 83.9997 59.5L84.2997 60.7999C84.2997 60.9999 84.1997 61.1999 83.9997 61.2999Z" fill="black"/>
<path d="M82.9001 60C82.7001 60 82.5001 59.9001 82.4001 59.7001L81.1001 53.3C81.1001 53.1 81.2001 52.9 81.4001 52.8C81.6001 52.8 81.8001 52.9 81.9001 53.1L83.2001 59.5C83.3001 59.7 83.1001 59.9 82.9001 60Z" fill="black"/>
<path d="M100.551 65.6868C104.799 65.4915 108.084 61.8896 107.889 57.6416C107.694 53.3937 104.092 50.1085 99.8439 50.3038C95.596 50.4991 92.3107 54.1011 92.506 58.349C92.7014 62.5969 96.3033 65.8822 100.551 65.6868Z" fill="white"/>
<path d="M101.8 65.9C97.3999 66.8 93.0999 64 92.1999 59.6C91.2999 55.2 94.0999 50.9 98.4999 50C102.9 49.1 107.2 51.9 108.1 56.3C109 60.7 106.2 65 101.8 65.9ZM98.6999 50.8C94.7999 51.6 92.1999 55.5 92.9999 59.5C93.7999 63.4 97.6999 66 101.7 65.2C105.6 64.4 108.2 60.5 107.4 56.5C106.5 52.5 102.6 50 98.6999 50.8Z" fill="black"/>
<path d="M100.2 64.4C103.734 64.4 106.6 61.5346 106.6 58C106.6 54.4654 103.734 51.6 100.2 51.6C96.6652 51.6 93.7998 54.4654 93.7998 58C93.7998 61.5346 96.6652 64.4 100.2 64.4Z" fill="#FF4C00"/>
<path d="M101.2 57.9001L99 58.3C98.8 58.3 98.6 58.2 98.5 58C98.4 57.8 98.6 57.6 98.8 57.5L101 57C101.7 56.9 102.1 56.2 101.9 55.6C101.8 54.9 101.1 54.5 100.5 54.7L96.3 55.6C96.1 55.6 95.9 55.5 95.8 55.3C95.7 55.1 95.9 54.9 96.1 54.8L100.3 53.9001C101.4 53.7001 102.4 54.4001 102.7 55.4001C103 56.6001 102.3 57.6001 101.2 57.9001Z" fill="black"/>
<path d="M102.4 61.2L97.7002 62.2C97.5002 62.2 97.3002 62.1 97.2002 61.9C97.2002 61.7 97.3002 61.5 97.5002 61.4L102.2 60.4C102.9 60.2 103.4 59.5 103.3 58.8C103.2 58.1 102.4 57.6 101.7 57.7L98.6002 58.4C98.4002 58.4 98.2002 58.3 98.1002 58.1C98.0002 57.9 98.2002 57.7 98.4002 57.6L101.5 56.9C102.7 56.7 103.8 57.4 104 58.6C104.3 59.8 103.5 61 102.4 61.2Z" fill="black"/>
<path d="M100.2 54.5C99.9999 54.5 99.7999 54.4 99.6999 54.2L99.3999 52.9C99.3999 52.7 99.4999 52.5 99.6999 52.4C99.8999 52.3 100.1 52.5 100.2 52.7L100.5 54C100.6 54.3 100.5 54.5 100.2 54.5Z" fill="black"/>
<path d="M98.3 54.9001C98.1 54.9001 97.9 54.8 97.8 54.6L97.5 53.3C97.5 53.1 97.6 52.9 97.8 52.8C98 52.8 98.2 52.9 98.3 53.1L98.6 54.4001C98.7 54.7001 98.6 54.9001 98.3 54.9001Z" fill="black"/>
<path d="M102 62.8001C101.8 62.8001 101.6 62.7001 101.5 62.5001L101.2 61.2001C101.2 61.0001 101.3 60.8001 101.5 60.7001C101.7 60.6001 101.9 60.8001 102 61.0001L102.3 62.3001C102.3 62.6001 102.2 62.8001 102 62.8001Z" fill="black"/>
<path d="M100.1 63.2C99.8998 63.2 99.6998 63.1 99.5998 62.9L99.2998 61.6C99.2998 61.4 99.3998 61.2 99.5998 61.1C99.7998 61.1 99.9998 61.2 100.1 61.4L100.4 62.7C100.4 63 100.3 63.2 100.1 63.2Z" fill="black"/>
<path d="M99.0002 61.9C98.8002 61.9 98.6002 61.7999 98.5002 61.5999L97.2002 55.2C97.2002 55 97.3002 54.8 97.5002 54.7C97.7002 54.7 97.9002 54.8 98.0002 55L99.3002 61.4C99.4002 61.7 99.2002 61.9 99.0002 61.9Z" fill="black"/>
<path d="M116.7 85.8L67.0999 96.2C66.2999 96.4 65.5999 95.9 65.4999 95.1L59.9999 68.7C59.7999 67.9 60.2999 67.2 61.0999 67.1L110.7 56.7C111.5 56.5 112.2 57 112.3 57.8L117.8 84.2C117.9 84.9 117.4 85.6 116.7 85.8Z" fill="#FF4C00"/>
<path d="M87.0001 89.9L60.4001 95.5C59.2001 95.8 57.9001 95 57.7001 93.7L56.1001 86.3C55.8001 85.1 56.6001 83.8 57.9001 83.6L84.5001 78C85.7001 77.7 87.0001 78.5 87.2001 79.8L88.8001 87.2C89.0001 88.4 88.2001 89.7 87.0001 89.9Z" fill="black"/>
<path d="M85.9998 87.6999L83.5998 88.1999C83.3998 88.1999 83.1998 88.0999 83.0998 87.8999L81.7998 81.7999C81.7998 81.5999 81.8998 81.3999 82.0998 81.2999L84.4998 80.7999C84.6998 80.7999 84.8998 80.8999 84.9998 81.0999L86.2998 87.1999C86.2998 87.3999 86.1998 87.5999 85.9998 87.6999Z" fill="#FF4C00"/>
<path d="M107.8 71.4C107.5 69.8 106.4 68.5 104.9 68L104.7 67.9L104.2 67.7L101.3 66.7L100.8 66.5L95.3003 64.6L95.9003 67.6L98.5003 68.5L99.0003 68.7L101.9 69.7L102.4 69.9L104 70.5C104.6 70.7 105.1 71.2 105.2 71.9L105.3 72.3C105.4 72.9 105.2 73.6 104.7 74L103.4 75.1L103 75.4L100.7 77.4L100.3 77.7L98.2003 79.5L98.8003 82.5L103.2 78.7L103.6 78.4L105.9 76.4L106.3 76.1L106.4 76C107.6 75 108.2 73.4 107.9 71.8" fill="black"/>
<path d="M108.6 77.3C108.9 78.7 108.4 80.2 107.3 81.1L106.8 81.5L104.7 83.3L100.3 87L99.8002 84.3L102.1 82.4L104.2 80.6L105.7 79.3C106.1 78.9 106.4 78.3 106.2 77.7L106.1 77.3C106 76.7 105.6 76.2 105 76L103.1 75.3L100.5 74.4L97.7002 73.4L97.2002 70.7L102.6 72.6L105.2 73.5L105.8 73.7C107.2 74.2 108.2 75.4 108.4 76.8" fill="white"/>
<path d="M99.6003 77.4999L98.0003 78.8999L95.8003 68.3999L98.0003 69.1999L99.6003 77.4999Z" fill="black"/>
<path d="M70.5003 32.6373C71.3585 27.3492 67.7674 22.3667 62.4794 21.5085C57.1913 20.6502 52.2088 24.2413 51.3506 29.5294C50.4924 34.8174 54.0834 39.8 59.3715 40.6582C64.6596 41.5164 69.6421 37.9253 70.5003 32.6373Z" fill="white"/>
<path d="M61 41.2999C55.4 41.2999 50.8 36.6999 50.8 31.0999C50.8 25.4999 55.4 20.8999 61 20.8999C66.6 20.8999 71.2 25.4999 71.2 31.0999C71.2 36.7999 66.6 41.2999 61 41.2999ZM61 21.8999C55.9 21.8999 51.8 25.9999 51.8 31.0999C51.8 36.1999 55.9 40.2999 61 40.2999C66.1 40.2999 70.2 36.1999 70.2 31.0999C70.2 26.0999 66 21.8999 61 21.8999Z" fill="black"/>
<path d="M61.0002 39.1C65.4185 39.1 69.0002 35.5183 69.0002 31.1C69.0002 26.6817 65.4185 23.1 61.0002 23.1C56.582 23.1 53.0002 26.6817 53.0002 31.1C53.0002 35.5183 56.582 39.1 61.0002 39.1Z" fill="#FF4C00"/>
<path d="M61 36.7999C60.9 36.7999 60.8 36.6999 60.7 36.5999L57 31.4999C56.9 31.3999 56.9 31.1999 57 31.0999C57.1 30.9999 57.3001 30.8999 57.4001 30.9999L61.1 32.3999L64.6 30.8999C64.8 30.7999 64.9 30.8999 65 30.9999C65.1 31.0999 65.1 31.2999 65 31.4999L61.3 36.6999C61.3 36.7999 61.2 36.7999 61 36.7999ZM58.4001 32.0999L61.1 35.7999L63.7 32.0999L61.3 33.0999C61.2 33.0999 61.1 33.0999 61 33.0999L58.4001 32.0999Z" fill="black"/>
<path d="M57.3 31.5999C57.2 31.5999 57.1 31.5999 57 31.4999C56.9 31.3999 56.9 31.1999 57 31.0999L60.7 24.4999C60.8 24.3999 60.9 24.2999 61 24.2999C61.1 24.2999 61.3 24.3999 61.3 24.4999L65 30.9999C65.1 31.0999 65.1 31.2999 65 31.3999C64.9 31.4999 64.7 31.5999 64.6 31.4999L61.2 30.2999L57.4001 31.4999C57.4001 31.5999 57.4 31.5999 57.3 31.5999ZM61 25.2999L58.1 30.4999L61.1 29.4999C61.2 29.4999 61.3 29.4999 61.3 29.4999L63.9001 30.3999L61 25.2999Z" fill="black"/>
<path d="M45.0811 74.4459C45.7978 70.0301 42.799 65.8694 38.3832 65.1528C33.9674 64.4361 29.8068 67.4349 29.0901 71.8507C28.3734 76.2665 31.3722 80.4272 35.788 81.1438C40.2038 81.8605 44.3645 78.8617 45.0811 74.4459Z" fill="white"/>
<path d="M37.1001 81.6C32.4001 81.6 28.6001 77.8 28.6001 73.1C28.6001 68.4 32.4001 64.6 37.1001 64.6C41.8001 64.6 45.6001 68.4 45.6001 73.1C45.6001 77.8 41.8001 81.6 37.1001 81.6ZM37.1001 65.5C32.9001 65.5 29.4001 68.9 29.4001 73.2C29.4001 77.4 32.8001 80.9 37.1001 80.9C41.3001 80.9 44.8001 77.5 44.8001 73.2C44.8001 68.9 41.3001 65.5 37.1001 65.5Z" fill="black"/>
<path d="M37.1001 79.7999C40.8005 79.7999 43.8001 76.8002 43.8001 73.0999C43.8001 69.3996 40.8005 66.3999 37.1001 66.3999C33.3998 66.3999 30.4001 69.3996 30.4001 73.0999C30.4001 76.8002 33.3998 79.7999 37.1001 79.7999Z" fill="#FF4C00"/>
<path d="M38.0002 72.3C37.8002 72.3 37.7002 72.1999 37.6002 71.9999C37.5002 71.7999 37.6002 71.5 37.9002 71.4L39.5002 70.8C39.7002 70.7 40.0002 70.7999 40.1002 71.0999C40.2002 71.2999 40.1002 71.5999 39.8002 71.6999L38.2002 72.3C38.2002 72.3 38.1002 72.3 38.0002 72.3Z" fill="black"/>
<path d="M33.4001 74.1999C33.2001 74.1999 33.1001 74.0999 33.0001 73.8999C32.9001 73.6999 33.0001 73.3999 33.3001 73.2999L34.9001 72.6999C35.1001 72.5999 35.4001 72.6999 35.5001 72.9999C35.6001 73.1999 35.5001 73.4999 35.2001 73.5999L33.6001 74.1999C33.5001 74.1999 33.4001 74.1999 33.4001 74.1999Z" fill="black"/>
<path d="M36.5001 76.9999H34.3001C34.2001 76.9999 34.0001 76.8999 34.0001 76.7999C33.9001 76.6999 33.9001 76.5999 33.9001 76.3999L36.1001 68.1999C36.2001 67.9999 36.3001 67.8999 36.5001 67.8999H38.7001C38.8001 67.8999 39.0001 67.9999 39.0001 68.0999C39.1001 68.1999 39.1001 68.2999 39.1001 68.4999L36.9001 76.6999C36.8001 76.8999 36.7001 76.9999 36.5001 76.9999ZM34.8001 76.0999H36.1001L38.0001 68.7999H36.7001L34.8001 76.0999Z" fill="black"/>
<path d="M40.1001 77H34.3001C34.1001 77 33.9001 76.8 33.9001 76.6C33.9001 76.4 34.1001 76.2 34.3001 76.2H40.1001C40.3001 76.2 40.5001 76.4 40.5001 76.6C40.5001 76.8 40.3001 77 40.1001 77Z" fill="black"/>
<path d="M124.095 123.236C129.69 122.578 133.693 117.51 133.036 111.915C132.378 106.32 127.31 102.317 121.715 102.974C116.12 103.632 112.117 108.7 112.774 114.295C113.432 119.89 118.5 123.893 124.095 123.236Z" fill="white"/>
<path d="M123 123.6C117.2 123.6 112.5 118.9 112.5 113.1C112.5 107.3 117.2 102.6 123 102.6C128.8 102.6 133.5 107.3 133.5 113.1C133.5 118.9 128.8 123.6 123 123.6ZM123 103.6C117.8 103.6 113.5 107.9 113.5 113.1C113.5 118.3 117.8 122.6 123 122.6C128.2 122.6 132.5 118.3 132.5 113.1C132.5 107.8 128.2 103.6 123 103.6Z" fill="black"/>
<path d="M123 121.4C127.584 121.4 131.3 117.684 131.3 113.1C131.3 108.516 127.584 104.8 123 104.8C118.416 104.8 114.7 108.516 114.7 113.1C114.7 117.684 118.416 121.4 123 121.4Z" fill="#FF4C00"/>
<path d="M122.8 119.5V117.8C121.5 117.7 120.8 117.3 120.4 116.9L121 116.1C121.4 116.5 122.2 116.9 123.2 116.9C124.5 116.9 125 116.3 125 115.6C125 114.8 124.4 114.5 123.5 114.1L122.8 113.8C121.8 113.4 121 112.8 121 111.6C121 110.4 121.9 109.6 123.1 109.5V107.8H124V109.5C125 109.6 125.6 110 125.9 110.2L125.3 111C124.9 110.6 124.3 110.4 123.7 110.4C122.7 110.4 122.1 110.9 122.1 111.7C122.1 112.5 122.7 112.8 123.5 113.2L124.2 113.5C125.2 114 126.1 114.5 126.1 115.7C126.1 116.7 125.4 117.7 123.8 117.9V119.6H122.8V119.5Z" fill="black"/>
<path d="M14 27.6V13.7" stroke="white" stroke-width="2" stroke-linecap="round" stroke-linejoin="round"/>
<path d="M7 20.7H21" stroke="white" stroke-width="2" stroke-linecap="round" stroke-linejoin="round"/>
<defs>
<linearGradient id="paint0_linear_1719_13029" x1="75" y1="0" x2="75" y2="150" gradientUnits="userSpaceOnUse">
<stop stop-color="#FF7D00"/>
<stop offset="0.1839" stop-color="#FF6A00"/>
<stop offset="0.4196" stop-color="#FF5900"/>
<stop offset="0.6781" stop-color="#FF4F00"/>
<stop offset="1" stop-color="#FF4C00"/>
</linearGradient>
</defs>
</svg>
