<svg width="150" height="150" viewBox="0 0 150 150" fill="none" xmlns="http://www.w3.org/2000/svg">
<path d="M10 0H140C145.5 0 150 4.5 150 10V140C150 145.5 145.5 150 140 150H10C4.5 150 0 145.5 0 140V10C0 4.5 4.5 0 10 0Z" fill="url(#paint0_linear_1719_12921)"/>
<path d="M20.6998 22.7L13.7998 29.7M6.7998 22.8L20.6998 22.7L6.7998 22.8ZM20.6998 22.7L13.6998 15.7L20.6998 22.7Z" stroke="white" stroke-width="2" stroke-linecap="round" stroke-linejoin="round"/>
<path d="M119.3 107.5L54.1001 97.4C52.1001 97.1 50.8001 95.2 51.1001 93.3L57.8001 50.1C58.1001 48.1 60.0001 46.8 61.9001 47.1L127.1 57.1C129.1 57.4 130.4 59.3 130.1 61.2L123.4 104.5C123.1 106.5 121.3 107.9 119.3 107.5Z" fill="#FF4C00"/>
<path d="M77.3 66.7C82.4363 66.7 86.6 62.5362 86.6 57.4C86.6 52.2637 82.4363 48.1 77.3 48.1C72.1638 48.1 68 52.2637 68 57.4C68 62.5362 72.1638 66.7 77.3 66.7Z" fill="white"/>
<path d="M75.8 67.1C70.5 66.3 66.8 61.3 67.6 56C68.4 50.7 73.4 47 78.7 47.8C84 48.6 87.7 53.6 86.9 58.9C86.2 64.3 81.2 67.9 75.8 67.1ZM78.7 48.7C73.9 48 69.4 51.3 68.6 56.1C67.9 60.9 71.2 65.4 76 66.2C80.8 66.9 85.3 63.6 86.1 58.8C86.8 54 83.5 49.5 78.7 48.7Z" fill="black"/>
<path d="M77.3001 65.0999C81.5527 65.0999 85.0001 61.6525 85.0001 57.4C85.0001 53.1474 81.5527 49.7 77.3001 49.7C73.0475 49.7 69.6001 53.1474 69.6001 57.4C69.6001 61.6525 73.0475 65.0999 77.3001 65.0999Z" fill="#FF4C00"/>
<path d="M78.4996 57.7999L75.7996 57.4C75.4996 57.4 75.3996 57.1 75.3996 56.9C75.3996 56.7 75.6996 56.5 75.8996 56.5L78.5996 56.9C79.3996 57 80.1996 56.5 80.2996 55.7C80.3996 54.9 79.8996 54.1 79.0996 54L73.9996 53.0999C73.6996 53.0999 73.5996 52.7999 73.5996 52.5999C73.5996 52.3999 73.8996 52.2 74.0996 52.2L79.1996 53C80.4996 53.2 81.3996 54.3999 81.1996 55.7999C81.0996 57.0999 79.7996 57.9999 78.4996 57.7999Z" fill="black"/>
<path d="M78.3998 62.0999L72.6998 61.1999C72.3998 61.1999 72.2998 60.8999 72.2998 60.6999C72.2998 60.3999 72.5998 60.2999 72.7998 60.2999L78.4998 61.1999C79.3998 61.2999 80.1998 60.6999 80.3998 59.7999C80.4998 58.8999 79.8998 58.0999 78.9998 57.8999L75.1998 57.2999C74.8998 57.2999 74.7998 56.9999 74.7998 56.7999C74.7998 56.4999 75.0998 56.3999 75.2998 56.3999L79.0998 56.9999C80.4998 57.1999 81.4998 58.4999 81.2998 59.9999C81.1998 61.2999 79.7998 62.2999 78.3998 62.0999Z" fill="black"/>
<path d="M78.9 53.6C78.6 53.6 78.5 53.3 78.5 53.1L78.7 51.5C78.7 51.2 79 51.1 79.2 51.1C79.5 51.1 79.6 51.4 79.6 51.6L79.4 53.2C79.4 53.5 79.1 53.6 78.9 53.6Z" fill="black"/>
<path d="M76.4996 53.2C76.1996 53.2 76.0996 52.9 76.0996 52.7L76.2996 51.0999C76.2996 50.7999 76.5996 50.7 76.7996 50.7C77.0996 50.7 77.1996 51 77.1996 51.2L76.9996 52.7999C76.9996 53.0999 76.7996 53.3 76.4996 53.2Z" fill="black"/>
<path d="M77.2999 63.7C76.9999 63.7 76.8999 63.4 76.8999 63.2L77.0999 61.5999C77.0999 61.2999 77.3999 61.2 77.5999 61.2C77.7999 61.2 77.9999 61.5 77.9999 61.7L77.7999 63.2999C77.7999 63.5999 77.5999 63.7 77.2999 63.7Z" fill="black"/>
<path d="M74.9996 63.2999C74.6996 63.2999 74.5996 62.9999 74.5996 62.7999L74.7996 61.1999C74.7996 60.8999 75.0996 60.7999 75.2996 60.7999C75.4996 60.7999 75.6996 61.0999 75.6996 61.2999L75.4996 62.8999C75.4996 63.1999 75.1996 63.3999 74.9996 63.2999Z" fill="black"/>
<path d="M74.2999 61.4C73.9999 61.4 73.8999 61.1 73.8999 60.9L75.0999 53.0999C75.0999 52.7999 75.3999 52.7 75.5999 52.7C75.8999 52.7 75.9999 53 75.9999 53.2L74.7999 61C74.7999 61.3 74.5999 61.5 74.2999 61.4Z" fill="black"/>
<path d="M88.2005 54.9C94.3861 54.9 99.4005 49.8856 99.4005 43.7C99.4005 37.5144 94.3861 32.5 88.2005 32.5C82.0149 32.5 77.0005 37.5144 77.0005 43.7C77.0005 49.8856 82.0149 54.9 88.2005 54.9Z" fill="white"/>
<path d="M90.2003 55.3C83.8003 56.4 77.7003 52 76.6003 45.6C75.5003 39.2 79.9003 33.1 86.3003 32C92.7003 30.9 98.8003 35.3 99.9003 41.7C101 48.1 96.6003 54.2 90.2003 55.3ZM86.5003 33.1C80.7003 34.1 76.7003 39.6 77.7003 45.4C78.7003 51.2 84.2003 55.1 90.0003 54.2C95.8003 53.2 99.7003 47.7 98.8003 41.9C97.8003 36.1 92.3003 32.2 86.5003 33.1Z" fill="black"/>
<path d="M88.2004 53C93.3366 53 97.5004 48.8363 97.5004 43.7C97.5004 38.5638 93.3366 34.4 88.2004 34.4C83.0641 34.4 78.9004 38.5638 78.9004 43.7C78.9004 48.8363 83.0641 53 88.2004 53Z" fill="#FF4C00"/>
<path d="M89.8002 43.5999L86.6002 44.0999C86.3002 44.1999 86.0002 43.8999 85.9002 43.5999C85.8002 43.2999 86.1002 42.9999 86.4002 42.8999L89.6002 42.3999C90.6002 42.1999 91.2002 41.2999 91.1002 40.2999C90.9002 39.2999 90.0002 38.6999 89.0002 38.7999L82.8002 39.7999C82.5002 39.8999 82.2002 39.5999 82.1002 39.2999C82.0002 38.9999 82.3002 38.6999 82.6002 38.5999L88.8002 37.5999C90.4002 37.2999 91.9002 38.3999 92.2002 39.9999C92.4002 41.7999 91.3002 43.2999 89.8002 43.5999Z" fill="black"/>
<path d="M91.3003 48.5L84.4003 49.7C84.1003 49.8 83.8003 49.5 83.7003 49.2C83.6003 48.9 83.9003 48.6 84.2003 48.5L91.1003 47.3C92.2003 47.1 92.9003 46.1 92.7003 45C92.5003 43.9 91.5003 43.2 90.4003 43.4L85.8003 44.2C85.5003 44.3 85.2003 44 85.1003 43.7C85.0003 43.4 85.3003 43.1 85.6003 43L90.2003 42.2C91.9003 41.9 93.5003 43.1 93.8003 44.8C94.1003 46.6 93.0003 48.3 91.3003 48.5Z" fill="black"/>
<path d="M88.6002 38.6999C88.3002 38.7999 88.0002 38.4999 87.9002 38.1999L87.6002 36.2999C87.5002 35.9999 87.8002 35.6999 88.1002 35.5999C88.4002 35.4999 88.7002 35.7999 88.7002 36.0999L89.0002 37.9999C89.1002 38.2999 88.9002 38.5999 88.6002 38.6999Z" fill="black"/>
<path d="M85.8004 39.1999C85.5004 39.2999 85.2004 38.9999 85.1004 38.6999L84.8004 36.7999C84.7004 36.4999 85.0004 36.1999 85.3004 36.0999C85.6004 35.9999 85.9004 36.2999 86.0004 36.5999L86.3004 38.4999C86.3004 38.7999 86.1004 39.0999 85.8004 39.1999Z" fill="black"/>
<path d="M90.6002 50.7999C90.3002 50.8999 90.0002 50.5999 89.9002 50.2999L89.6002 48.3999C89.5002 48.0999 89.8002 47.7999 90.1002 47.6999C90.4002 47.5999 90.7002 47.8999 90.8002 48.1999L91.1002 50.0999C91.1002 50.4999 90.9002 50.7999 90.6002 50.7999Z" fill="black"/>
<path d="M87.8004 51.2999C87.5004 51.3999 87.2004 51.0999 87.1004 50.7999L86.8004 48.8999C86.7004 48.5999 87.0004 48.2999 87.3004 48.1999C87.6004 48.0999 87.9004 48.3999 88.0004 48.6999L88.3004 50.5999C88.3004 50.9999 88.1004 51.2999 87.8004 51.2999Z" fill="black"/>
<path d="M86.3001 49.3999C86.0001 49.4999 85.7001 49.1999 85.6001 48.8999L84.0001 39.4999C83.9001 39.1999 84.2001 38.8999 84.5001 38.7999C84.8001 38.6999 85.1001 38.9999 85.2001 39.2999L86.8001 48.6999C86.9001 48.9999 86.7001 49.2999 86.3001 49.3999Z" fill="black"/>
<path d="M111.5 75.3C116.636 75.3 120.8 71.1362 120.8 66C120.8 60.8637 116.636 56.7 111.5 56.7C106.364 56.7 102.2 60.8637 102.2 66C102.2 71.1362 106.364 75.3 111.5 75.3Z" fill="white"/>
<path d="M110.1 75.6999C104.8 74.8999 101.1 69.8999 101.9 64.5999C102.7 59.2999 107.7 55.5999 113 56.3999C118.3 57.1999 122 62.1999 121.2 67.4999C120.4 72.7999 115.4 76.4999 110.1 75.6999ZM112.9 57.2999C108.1 56.5999 103.6 59.8999 102.8 64.6999C102.1 69.4999 105.4 73.9999 110.2 74.7999C115 75.4999 119.5 72.1999 120.3 67.3999C121 62.5999 117.7 57.9999 112.9 57.2999Z" fill="black"/>
<path d="M111.6 73.6999C115.853 73.6999 119.3 70.2525 119.3 65.9999C119.3 61.7473 115.853 58.2999 111.6 58.2999C107.348 58.2999 103.9 61.7473 103.9 65.9999C103.9 70.2525 107.348 73.6999 111.6 73.6999Z" fill="#FF4C00"/>
<path d="M112.8 66.3999L110.1 65.9999C109.8 65.9999 109.7 65.6999 109.7 65.4999C109.7 65.2999 110 65.0999 110.2 65.0999L112.9 65.4999C113.7 65.5999 114.5 65.0999 114.6 64.2999C114.7 63.4999 114.2 62.6999 113.4 62.5999L108.3 61.7999C108 61.7999 107.9 61.4999 107.9 61.2999C107.9 61.0999 108.2 60.8999 108.4 60.8999L113.5 61.6999C114.8 61.8999 115.7 63.0999 115.5 64.4999C115.3 65.6999 114.1 66.5999 112.8 66.3999Z" fill="black"/>
<path d="M112.7 70.5999L107 69.6999C106.7 69.6999 106.6 69.3999 106.6 69.1999C106.6 68.8999 106.9 68.7999 107.1 68.7999L112.8 69.6999C113.7 69.7999 114.5 69.1999 114.7 68.2999C114.8 67.3999 114.2 66.5999 113.3 66.3999L109.5 65.7999C109.2 65.7999 109.1 65.4999 109.1 65.2999C109.1 64.9999 109.4 64.8999 109.6 64.8999L113.4 65.4999C114.8 65.6999 115.8 66.9999 115.6 68.4999C115.4 69.8999 114.1 70.8999 112.7 70.5999Z" fill="black"/>
<path d="M113.1 62.2C112.8 62.2 112.7 61.9 112.7 61.7L112.9 60.0999C112.9 59.7999 113.2 59.7 113.4 59.7C113.7 59.7 113.8 60 113.8 60.2L113.6 61.7999C113.6 62.0999 113.4 62.2 113.1 62.2Z" fill="black"/>
<path d="M110.8 61.7999C110.5 61.7999 110.4 61.4999 110.4 61.2999L110.6 59.6999C110.6 59.3999 110.9 59.2999 111.1 59.2999C111.4 59.2999 111.5 59.5999 111.5 59.7999L111.3 61.3999C111.3 61.6999 111.1 61.8999 110.8 61.7999Z" fill="black"/>
<path d="M111.6 72.2999C111.3 72.2999 111.2 71.9999 111.2 71.7999L111.4 70.1999C111.4 69.8999 111.7 69.7999 111.9 69.7999C112.1 69.7999 112.3 70.0999 112.3 70.2999L112.1 71.8999C112.1 72.1999 111.8 72.2999 111.6 72.2999Z" fill="black"/>
<path d="M109.2 71.8999C108.9 71.8999 108.8 71.5999 108.8 71.3999L109 69.7999C109 69.4999 109.3 69.3999 109.5 69.3999C109.8 69.3999 109.9 69.6999 109.9 69.8999L109.7 71.4999C109.7 71.7999 109.5 71.9999 109.2 71.8999Z" fill="black"/>
<path d="M108.6 69.9999C108.3 69.9999 108.2 69.6999 108.2 69.4999L109.4 61.6999C109.4 61.3999 109.7 61.2999 109.9 61.2999C110.2 61.2999 110.3 61.5999 110.3 61.7999L109.1 69.5999C109.1 69.8999 108.8 70.0999 108.6 69.9999Z" fill="black"/>
<path d="M118.4 104.5L58.0002 95.1C57.1002 95 56.5002 94.1 56.6002 93.2L61.6002 61C61.7002 60.1 62.6002 59.5 63.5002 59.6L123.9 68.9C124.8 69 125.4 69.9 125.3 70.8L120.3 103C120.2 104 119.3 104.6 118.4 104.5Z" fill="url(#paint1_linear_1719_12921)"/>
<path d="M83.1001 96.5L50.7001 91.5C49.2001 91.3 48.1001 89.8 48.4001 88.3L49.8001 79.3C50.0001 77.8 51.5001 76.7 53.0001 77L85.4001 82C86.9001 82.2 88.0001 83.7 87.7001 85.2L86.3001 94.2C86.0001 95.7 84.6001 96.8 83.1001 96.5Z" fill="#FF4C00"/>
<path d="M82.9001 93.6L79.9001 93.1C79.6001 93.1 79.4001 92.8 79.5001 92.5L80.7001 85.1C80.7001 84.8 81.0001 84.6 81.3001 84.7L84.3001 85.2C84.6001 85.2 84.8001 85.5 84.7001 85.8L83.5001 93.3C83.4001 93.5 83.2001 93.6 82.9001 93.6Z" fill="url(#paint2_linear_1719_12921)"/>
<path d="M114.4 84.5C114.7 82.6 114 80.7 112.6 79.4L112.4 79.3L111.9 78.9L109.1 76.5L108.6 76.1L103.2 71.6L102.6 75.2L105.2 77.3L105.7 77.7L108.5 80.1L109 80.5L110.6 81.8C111.2 82.3 111.5 83.1 111.4 83.9L111.3 84.4C111.2 85.2 110.6 85.8 109.9 86.1L108 86.8L107.4 87L103.9 88.3L103.3 88.5L100.2 89.6L99.6001 93.2L106.2 90.8L106.8 90.6L110.3 89.3L110.9 89.1L111.1 89C112.9 88.3 114.2 86.8 114.6 84.9" fill="white"/>
<path d="M112.8 91.4999C112.5 93.1999 111.3 94.6999 109.7 95.1999L109 95.4999L105.9 96.5999L99.4004 98.9999L100 95.6999L103.4 94.4999L106.5 93.3999L108.8 92.5999C109.5 92.3999 110 91.7999 110.1 91.0999L110.2 90.5999C110.3 89.8999 110.1 89.1999 109.5 88.6999L107.6 87.0999L105 84.9999L102.3 82.6999L102.9 79.3999L108.2 83.8999L110.8 86.0999L111.4 86.5999C112.7 87.6999 113.4 89.4999 113.1 91.1999" fill="#FF4C00"/>
<path d="M102.6 87.9L100.2 88.8L102.1 76L104.4 77.8L102.6 87.9Z" fill="white"/>
<path d="M122.6 50.4C129.449 50.4 135 44.8483 135 38C135 31.1516 129.449 25.6 122.6 25.6C115.752 25.6 110.2 31.1516 110.2 38C110.2 44.8483 115.752 50.4 122.6 50.4Z" fill="white"/>
<path d="M118 50.2C111.3 47.7 107.9 40.1 110.5 33.4C113 26.7 120.6 23.3 127.3 25.9C134 28.4 137.4 36 134.8 42.7C132.2 49.3 124.7 52.7 118 50.2ZM126.8 27C120.7 24.7 113.9 27.8 111.6 33.8C109.3 39.9 112.4 46.7 118.4 49C124.5 51.3 131.3 48.2 133.6 42.2C135.9 36.1 132.8 29.3 126.8 27Z" fill="black"/>
<path d="M122.6 48.1999C128.234 48.1999 132.8 43.6332 132.8 37.9999C132.8 32.3666 128.234 27.7999 122.6 27.7999C116.967 27.7999 112.4 32.3666 112.4 37.9999C112.4 43.6332 116.967 48.1999 122.6 48.1999Z" fill="#FF4C00"/>
<path d="M120.1 44.8C120 44.7 119.8 44.6 119.8 44.5L117.7 36.7C117.6 36.5 117.7 36.3 117.9 36.2C118.1 36.1 118.3 36.1 118.5 36.3L122.2 39.6L127 39.4C127.2 39.4 127.4 39.5 127.5 39.7C127.6 39.9 127.5 40.1 127.3 40.2L120.5 44.7C120.4 44.9 120.3 44.9 120.1 44.8ZM119.1 38L120.6 43.6L125.4 40.4L122.1 40.5C122 40.5 121.9 40.5 121.8 40.4L119.1 38Z" fill="black"/>
<path d="M118.1 36.8999C118 36.7999 117.9 36.6999 117.8 36.5999C117.7 36.3999 117.8 36.1999 117.9 36.0999L125.3 29.8999C125.4 29.7999 125.6 29.7999 125.8 29.7999C126 29.8999 126.1 29.9999 126.1 30.1999L127.6 39.6999C127.6 39.8999 127.5 40.0999 127.4 40.1999C127.2 40.2999 127 40.2999 126.9 40.1999L123.4 37.2999L118.4 36.9999C118.2 36.8999 118.1 36.8999 118.1 36.8999ZM125.3 31.1999L119.5 36.0999L123.5 36.2999C123.6 36.2999 123.7 36.2999 123.8 36.3999L126.5 38.5999L125.3 31.1999Z" fill="black"/>
<path d="M40.0002 64.5C46.5172 64.5 51.8002 59.217 51.8002 52.7C51.8002 46.1831 46.5172 40.9 40.0002 40.9C33.4832 40.9 28.2002 46.1831 28.2002 52.7C28.2002 59.217 33.4832 64.5 40.0002 64.5Z" fill="white"/>
<path d="M43.7002 64.6C37.2002 66.7 30.2002 63 28.1002 56.5C26.0002 50 29.7002 43 36.2002 40.9C42.7002 38.8 49.7002 42.5 51.8002 49C53.9002 55.5 50.3002 62.5 43.7002 64.6ZM36.6002 42C30.7002 43.9 27.4002 50.2 29.3002 56.1C31.2002 62 37.5002 65.3 43.4002 63.4C49.3002 61.5 52.6002 55.2 50.7002 49.3C48.8002 43.4 42.5002 40.1 36.6002 42Z" fill="black"/>
<path d="M40.0002 62.5C45.4126 62.5 49.8002 58.1124 49.8002 52.7C49.8002 47.2876 45.4126 42.9 40.0002 42.9C34.5878 42.9 30.2002 47.2876 30.2002 52.7C30.2002 58.1124 34.5878 62.5 40.0002 62.5Z" fill="#FF4C00"/>
<path d="M40.9004 51.2C40.7004 51.3 40.4004 51.2 40.2004 51C40.0004 50.7 40.0004 50.3 40.3004 50.1L42.3004 48.5C42.6004 48.3 43.0004 48.3 43.2004 48.6C43.4004 48.9 43.4004 49.3 43.1004 49.5L41.1004 51.1C41.1004 51.1 41.0004 51.2 40.9004 51.2Z" fill="black"/>
<path d="M35.2002 55.8999C35.0002 55.9999 34.7002 55.8999 34.5002 55.6999C34.3002 55.3999 34.3002 54.9999 34.6002 54.7999L36.6002 53.1999C36.9002 52.9999 37.3002 52.9999 37.5002 53.2999C37.7002 53.5999 37.7002 53.9999 37.4002 54.1999L35.4002 55.7999C35.4002 55.7999 35.3002 55.8999 35.2002 55.8999Z" fill="black"/>
<path d="M40.8002 58.4L37.7002 59.4C37.5002 59.5 37.3002 59.4 37.1002 59.3C36.9002 59.2 36.8002 59 36.8002 58.8L36.2002 46.4C36.2002 46.1 36.4002 45.8 36.6002 45.8L39.7002 44.8C39.9002 44.7 40.1002 44.8 40.3002 44.9C40.5002 45 40.6002 45.2 40.6002 45.4L41.2002 57.8C41.2002 58.1 41.1002 58.3 40.8002 58.4ZM38.1002 57.9L39.9002 57.3L39.4002 46.2L37.6002 46.8L38.1002 57.9Z" fill="black"/>
<path d="M45.8 56.8L37.7 59.4C37.4 59.5 37 59.3 36.9 59C36.8 58.7 37 58.3 37.3 58.2L45.4 55.6C45.7 55.5 46.1 55.7 46.2 56C46.4 56.3 46.2 56.7 45.8 56.8Z" fill="black"/>
<path d="M118.2 125.7C125.103 125.7 130.7 120.104 130.7 113.2C130.7 106.296 125.103 100.7 118.2 100.7C111.296 100.7 105.7 106.296 105.7 113.2C105.7 120.104 111.296 125.7 118.2 125.7Z" fill="white"/>
<path d="M122.4 125.2C115.8 127.5 108.5 124 106.2 117.3C103.9 110.7 107.4 103.4 114.1 101.1C120.7 98.8 128 102.3 130.3 109C132.6 115.6 129 122.9 122.4 125.2ZM114.5 102.3C108.5 104.4 105.3 110.9 107.4 116.9C109.5 122.9 116 126.1 122 124C128 121.9 131.2 115.4 129.1 109.4C127 103.4 120.5 100.2 114.5 102.3Z" fill="black"/>
<path d="M118.3 123.2C123.823 123.2 128.3 118.723 128.3 113.2C128.3 107.677 123.823 103.2 118.3 103.2C112.777 103.2 108.3 107.677 108.3 113.2C108.3 118.723 112.777 123.2 118.3 123.2Z" fill="#FF4C00"/>
<path d="M120.6 120.6L119.9 118.6C118.4 119 117.4 118.8 116.8 118.6L117.2 117.5C117.8 117.8 118.9 117.9 120 117.6C121.4 117.1 121.8 116.2 121.5 115.4C121.2 114.5 120.3 114.3 119.2 114.2L118.2 114.1C116.9 114 115.8 113.6 115.3 112.3C114.8 110.9 115.6 109.7 116.9 109L116.2 107.1L117.2 106.8L117.8 108.7C119 108.4 119.8 108.6 120.2 108.7L119.8 109.8C119.3 109.5 118.4 109.6 117.7 109.8C116.6 110.2 116.1 111 116.4 111.9C116.7 112.8 117.5 113 118.6 113.1L119.5 113.2C120.9 113.4 122.1 113.6 122.5 114.9C122.9 116.1 122.5 117.5 120.8 118.3L121.5 120.3L120.6 120.6Z" fill="black"/>
<defs>
<linearGradient id="paint0_linear_1719_12921" x1="75" y1="0" x2="75" y2="150" gradientUnits="userSpaceOnUse">
<stop stop-color="#3F2C22"/>
<stop offset="1"/>
</linearGradient>
<linearGradient id="paint1_linear_1719_12921" x1="58.8353" y1="77.483" x2="130.285" y2="87.6436" gradientUnits="userSpaceOnUse">
<stop stop-color="#3F2C22"/>
<stop offset="1"/>
</linearGradient>
<linearGradient id="paint2_linear_1719_12921" x1="57.9694" y1="85.743" x2="122.233" y2="94.8048" gradientUnits="userSpaceOnUse">
<stop stop-color="#3F2C22"/>
<stop offset="1"/>
</linearGradient>
</defs>
</svg>
